<?xml version="1.0" encoding="utf-8"?>
<!-- Generator: Adobe Illustrator 26.1.0, SVG Export Plug-In . SVG Version: 6.00 Build 0)  -->
<svg version="1.1" xmlns="http://www.w3.org/2000/svg" xmlns:xlink="http://www.w3.org/1999/xlink" x="0px" y="0px"
	 viewBox="0 0 1200 600" style="enable-background:new 0 0 1200 600;" xml:space="preserve">
<style type="text/css">
	.st0{fill:#012169;}
	.st1{clip-path:url(#SVGID_00000027574676952592663680000018208089049022471587_);stroke:#FFFFFF;stroke-width:60;}
	.st2{clip-path:url(#SVGID_00000124854678574392251900000001804042888954036924_);stroke:#C8102E;stroke-width:40;}
	.st3{clip-path:url(#SVGID_00000176024110737233311940000011238111195876692152_);stroke:#FFFFFF;stroke-width:100;}
	.st4{clip-path:url(#SVGID_00000159453184477008106710000010930819381355579057_);stroke:#C8102E;stroke-width:60;}
	.st5{fill:#C7112D;}
	.st6{fill:#FFFFFF;}
	.st7{fill:#C8102E;}
	.st8{fill:#606060;}
</style>
<g id="Layer_1">
	<rect x="-0.8" y="-0.3" class="st0" width="1200" height="600"/>
	<g id="Flag_of_the_United_Kingdom">
		<g>
			<defs>
				<rect id="SVGID_1_" x="0" y="621.4" width="600" height="300"/>
			</defs>
			<clipPath id="SVGID_00000174585738139721725510000009370501768778098583_">
				<use xlink:href="#SVGID_1_"  style="overflow:visible;"/>
			</clipPath>
			
				<path id="Saint_Andrews_Cross" style="clip-path:url(#SVGID_00000174585738139721725510000009370501768778098583_);stroke:#FFFFFF;stroke-width:60;" d="
				M0,621.4l600,300 M0,921.4l600-300"/>
		</g>
		<g>
			<defs>
				<path id="SVGID_00000062175736644574360080000014816444844756329654_" d="M0,621.4l300,150H0V621.4z M300,621.4h300l-300,150
					V621.4z M300,771.4h300v150L300,771.4z M300,771.4v150H0L300,771.4z"/>
			</defs>
			<clipPath id="SVGID_00000050646230034410139560000011066478367809747121_">
				<use xlink:href="#SVGID_00000062175736644574360080000014816444844756329654_"  style="overflow:visible;"/>
			</clipPath>
			
				<path id="Saint_Patricks_Cross" style="clip-path:url(#SVGID_00000050646230034410139560000011066478367809747121_);stroke:#C8102E;stroke-width:40;" d="
				M0,621.4l600,300 M0,921.4l600-300"/>
		</g>
		<g id="Saint_Georges_Cross">
			<g>
				<defs>
					<rect id="SVGID_00000040550917318241539550000017833700494028107411_" x="0" y="621.4" width="600" height="300"/>
				</defs>
				<clipPath id="SVGID_00000106854005843397418520000016921274377571292568_">
					<use xlink:href="#SVGID_00000040550917318241539550000017833700494028107411_"  style="overflow:visible;"/>
				</clipPath>
				<path style="clip-path:url(#SVGID_00000106854005843397418520000016921274377571292568_);stroke:#FFFFFF;stroke-width:100;" d="
					M300,621.4v300 M0,771.4h600"/>
			</g>
			<g>
				<defs>
					<rect id="SVGID_00000031916134606926111470000014886799902495508159_" x="0" y="621.4" width="600" height="300"/>
				</defs>
				<clipPath id="SVGID_00000043446461607989885450000008227792729246143643_">
					<use xlink:href="#SVGID_00000031916134606926111470000014886799902495508159_"  style="overflow:visible;"/>
				</clipPath>
				<path style="clip-path:url(#SVGID_00000043446461607989885450000008227792729246143643_);stroke:#C8102E;stroke-width:60;" d="
					M300,621.4v300 M0,771.4h600"/>
			</g>
		</g>
	</g>
	<path class="st5" d="M1255.9,629.4c-794.2-94.8-995.7-380.7-995.7-380.7l-24.1,15.4c0,0,262.7,384.4,761.7,470.4"/>
	<path d="M906.8,811.3C397.9,782.7,11.7,0,11.7,0H0v600"/>
	<path class="st6" d="M939.6,734.6C430.7,706,11.7,0,11.7,0H0c0,0,414,704.2,714.8,790.6"/>
	<g>
		<polygon class="st6" points="822.8,285.1 799.7,273.1 776.8,285.3 781,259.7 762.3,241.6 788,237.8 799.4,214.4 811,237.7 
			836.8,241.3 818.2,259.5 		"/>
		<polygon class="st6" points="959.6,143.1 936.6,131.1 913.6,143.3 917.9,117.6 899.2,99.6 924.9,95.7 936.3,72.4 947.9,95.6 
			973.6,99.2 955.1,117.5 		"/>
		<polygon class="st6" points="1081.8,247.6 1058.7,235.6 1035.8,247.8 1040,222.1 1021.3,204.1 1047,200.2 1058.4,176.9 
			1070,200.1 1095.8,203.7 1077.2,222 		"/>
		<polygon class="st6" points="962,504 939,492 916,504.2 920.3,478.6 901.6,460.5 927.3,456.7 938.7,433.3 950.3,456.5 976,460.2 
			957.5,478.4 		"/>
	</g>
	<g>
		<path class="st5" d="M237,265.8c-48.5-61-42.1-151.8,14.6-205.3C271,41.7,296.1,28.6,323,25.1c32.8-4.7,67.1,4.4,93.3,24.6
			c9.3,7.2,17.7,15.7,24.7,25.3c37.9,51.3,18.2,128.7-41.4,153c-27.9,11-61.4,5.7-84.4-13.7c-10.7-8.9-19.4-20.5-23.8-33.8
			c-9-25.7-1.1-56.2,19.4-74.2c0.6-0.5,3.1-2.7,3.6-3.1c1.2-0.9,2.9-2.1,4.1-2.9c1-0.8,4.1-2.4,5.2-3.1c5.3-2.8,11.3-4.7,17.2-5.7
			c1.9-0.2,4.1-0.6,6-0.7c0,0,4-0.1,4-0.1c0.5,0,1.5,0,2,0.1c6,0.3,12.1,1.4,17.7,3.6c10.2,3.6,19.1,10.4,25.8,18.7
			c4.4,5.5,3.5,13.6-2,18c-5.6,4.5-13.7,3.5-18.1-2.2c-4.1-5-9.4-8.8-15.6-10.8c-2.5-0.7-5.2-1.4-7.8-1.5c-0.4,0-1.3-0.1-1.7-0.1
			c-1.7,0.1-3.4,0.1-5.1,0.3c-1.3,0.1-3.1,0.6-4.4,0.9c-3.1,0.9-6,2.2-8.7,3.9c-7.1,4.9-12.9,11.7-16.1,19.7
			c-7.9,19.3-1.2,40,14.9,52.8c15.8,13.2,38.8,16.8,57.9,9.2c13-5.1,23.9-15.2,31.4-26.9c18.5-28.2,15.2-66.9-7.6-91.7
			c-21.3-24.5-54.8-36.7-86.9-32c-53,7.4-91.3,59.3-93.7,111c-1.9,30.2,7.9,60.6,26.7,84.3C271.1,263.5,249.5,280.5,237,265.8
			L237,265.8z"/>
	</g>
	<polygon class="st6" points="1035,-154.1 1002.3,-146.6 984.8,-118.3 960.5,-209.7 	"/>
	<g id="Southern_Cross">
		<g id="Gamma_Crucis">
			<g transform="translate(900,120) scale(45.4)">
				<g id="Pentagram">
					<g id="Arm" transform="translate(0,-0.324925)">
						<path class="st6" d="M653.9-627v22.7l45.4-22.7H653.9z"/>
						<path class="st6" d="M662.5-600.4l-13.3-18.4l50.1-8.3L662.5-600.4z"/>
					</g>
					<g transform="scale(-1,1)">
						<g id="Arm_00000057137265646612424990000006578028382907099806_" transform="translate(0,-0.324925)">
							<path class="st6" d="M653.9-627v22.7L608.5-627H653.9z"/>
							<path class="st6" d="M645.2-600.4l13.3-18.4l-50.1-8.3L645.2-600.4z"/>
						</g>
					</g>
					<g transform="rotate(72,0,0)">
						<g id="Arm_00000003068497564959500970000018040260110717852549_" transform="translate(0,-0.324925)">
							<path class="st6" d="M667.9-616.9l-21.6,7l35.6,36.2L667.9-616.9z"/>
							<path class="st6" d="M645.2-600.4l13.3-18.4l23.4,45.1L645.2-600.4z"/>
						</g>
					</g>
					<g transform="rotate(-72,0,0)">
						<g id="Arm_00000059305979517608611740000012740887239844601777_" transform="translate(0,-0.324925)">
							<path class="st6" d="M639.8-616.9l21.6,7l-7.6-50.2L639.8-616.9z"/>
							<path class="st6" d="M667.9-616.9l-21.6,7l7.6-50.2L667.9-616.9z"/>
						</g>
					</g>
					<g transform="rotate(-72,0,0) scale(-1,1)">
						<g id="Arm_00000135659954333065417260000000445208386459722649_" transform="translate(0,-0.324925)">
							<path class="st6" d="M639.8-616.9l21.6,7l-35.6,36.2L639.8-616.9z"/>
							<path class="st6" d="M662.5-600.4l-13.3-18.4l-23.4,45.1L662.5-600.4z"/>
						</g>
					</g>
				</g>
			</g>
			<g transform="translate(900,120) scale(30)">
				<g id="Pentagram_00000007410742094987294310000009172152354406039443_">
					<g id="Arm_00000083798261063240060940000009354305885150402693_" transform="translate(0,-0.324925)">
						<path class="st7" d="M653.9-622v15l30-15H653.9z"/>
						<path class="st7" d="M659.6-604.4l-8.8-12.1l33.1-5.5L659.6-604.4z"/>
					</g>
					<g transform="scale(-1,1)">
						<g id="Arm_00000048490091613612908580000004444590760211053447_" transform="translate(0,-0.324925)">
							<path class="st7" d="M653.9-622v15l-30-15H653.9z"/>
							<path class="st7" d="M648.1-604.4l8.8-12.1l-33.1-5.5L648.1-604.4z"/>
						</g>
					</g>
					<g transform="rotate(72,0,0)">
						<g id="Arm_00000039112935041772149510000001118527513192128643_" transform="translate(0,-0.324925)">
							<path class="st7" d="M663.1-615.3l-14.3,4.6l23.5,23.9L663.1-615.3z"/>
							<path class="st7" d="M648.1-604.4l8.8-12.1l15.5,29.8L648.1-604.4z"/>
						</g>
					</g>
					<g transform="rotate(-72,0,0)">
						<g id="Arm_00000097464008301061435770000012104410637194961820_" transform="translate(0,-0.324925)">
							<path class="st7" d="M644.6-615.3l14.3,4.6l-5-33.2L644.6-615.3z"/>
							<path class="st7" d="M663.1-615.3l-14.3,4.6l5-33.2L663.1-615.3z"/>
						</g>
					</g>
					<g transform="rotate(-72,0,0) scale(-1,1)">
						<g id="Arm_00000127024212325892102100000013508107820201631157_" transform="translate(0,-0.324925)">
							<path class="st7" d="M644.6-615.3l14.3,4.6l-23.5,23.9L644.6-615.3z"/>
							<path class="st7" d="M659.6-604.4l-8.8-12.1l-15.5,29.8L659.6-604.4z"/>
						</g>
					</g>
				</g>
			</g>
		</g>
		<g transform="rotate(82,900,240)">
			<g id="Delta_Crucis">
				<g transform="translate(900,120) rotate(-82) scale(40.4)">
					<g id="Pentagram_00000026123706299315624580000017779902827839185300_">
						<g id="Arm_00000117675325715981677790000011703814521994070144_" transform="translate(0,-0.324925)">
							<path class="st6" d="M127.3,260.3l20,2.8l-14.4-42.8L127.3,260.3z"/>
							<path class="st6" d="M151.8,256l-17.8,9.5l-1.1-45.2L151.8,256z"/>
						</g>
						<g transform="scale(-1,1)">
							<g id="Arm_00000104705186959530689230000002408265145700528825_" transform="translate(0,-0.324925)">
								<path class="st6" d="M127.3,260.3l20,2.8l-25.6,37.2L127.3,260.3z"/>
								<path class="st6" d="M149.7,271.2l-14.5-14l-13.5,43.1L149.7,271.2z"/>
							</g>
						</g>
						<g transform="rotate(72,0,0)">
							<g id="Arm_00000060020748585027413870000001141013432555091614_" transform="translate(0,-0.324925)">
								<path class="st6" d="M138,249.2l3.5,19.9l36.3-26.9L138,249.2z"/>
								<path class="st6" d="M149.7,271.2l-14.5-14l42.6-15L149.7,271.2z"/>
							</g>
						</g>
						<g transform="rotate(-72,0,0)">
							<g id="Arm_00000098207055416136308830000009797882316287134111_" transform="translate(0,-0.324925)">
								<path class="st6" d="M134.5,273.9l8.9-18.2l-45.2,0.4L134.5,273.9z"/>
								<path class="st6" d="M138,249.2l3.5,19.9l-43.3-12.9L138,249.2z"/>
							</g>
						</g>
						<g transform="rotate(-72,0,0) scale(-1,1)">
							<g id="Arm_00000063595365403868133330000008648088596640011423_" transform="translate(0,-0.324925)">
								<path class="st6" d="M134.5,273.9l8.9-18.2l27.5,35.9L134.5,273.9z"/>
								<path class="st6" d="M151.8,256l-17.8,9.5l36.8,26.2L151.8,256z"/>
							</g>
						</g>
					</g>
				</g>
				<g transform="translate(900,120) rotate(-82) scale(25)">
					<g id="Pentagram_00000128459652386790751270000015464639409249663620_">
						<g id="Arm_00000133505712190872588400000003136667364504637600_" transform="translate(0,-0.324925)">
							<path class="st7" d="M132.2,261l12.4,1.7l-8.9-26.5L132.2,261z"/>
							<path class="st7" d="M147.4,258.3l-11,5.9l-0.7-27.9L147.4,258.3z"/>
						</g>
						<g transform="scale(-1,1)">
							<g id="Arm_00000059294273313243835850000016518329808006709643_" transform="translate(0,-0.324925)">
								<path class="st7" d="M132.2,261l12.4,1.7l-15.9,23L132.2,261z"/>
								<path class="st7" d="M146.1,267.8l-9-8.7l-8.4,26.7L146.1,267.8z"/>
							</g>
						</g>
						<g transform="rotate(72,0,0)">
							<g id="Arm_00000087403535497261881180000016543438794416097962_" transform="translate(0,-0.324925)">
								<path class="st7" d="M138.8,254.1l2.2,12.3l22.4-16.7L138.8,254.1z"/>
								<path class="st7" d="M146.1,267.8l-9-8.7l26.4-9.3L146.1,267.8z"/>
							</g>
						</g>
						<g transform="rotate(-72,0,0)">
							<g id="Arm_00000166656100241318402310000001692952094698826922_" transform="translate(0,-0.324925)">
								<path class="st7" d="M136.7,269.4l5.5-11.2l-27.9,0.3L136.7,269.4z"/>
								<path class="st7" d="M138.8,254.1l2.2,12.3l-26.8-8L138.8,254.1z"/>
							</g>
						</g>
						<g transform="rotate(-72,0,0) scale(-1,1)">
							<g id="Arm_00000062871846283940098380000000962058289755503273_" transform="translate(0,-0.324925)">
								<path class="st7" d="M136.7,269.4l5.5-11.2l17,22.2L136.7,269.4z"/>
								<path class="st7" d="M147.4,258.3l-11,5.9l22.8,16.2L147.4,258.3z"/>
							</g>
						</g>
					</g>
				</g>
			</g>
			<g id="Beta_Crucis">
				<g transform="translate(900,380) rotate(-82) scale(45.4)">
					<g id="Pentagram_00000011727493948323897870000003478070788635787433_">
						<g id="Arm_00000010279079583997620550000010415993688499721131_" transform="translate(0,-0.324925)">
							<path class="st6" d="M125.6,520.1l22.5,3.2L132,475.1L125.6,520.1z"/>
							<path class="st6" d="M153.3,515.2l-20,10.7l-1.3-50.7L153.3,515.2z"/>
						</g>
						<g transform="scale(-1,1)">
							<g id="Arm_00000128479772923477142020000001575851649045784739_" transform="translate(0,-0.324925)">
								<path class="st6" d="M125.6,520.1l22.5,3.2L119.3,565L125.6,520.1z"/>
								<path class="st6" d="M150.9,532.4l-16.3-15.8L119.3,565L150.9,532.4z"/>
							</g>
						</g>
						<g transform="rotate(72,0,0)">
							<g id="Arm_00000004511540376454432350000015022208062319292841_" transform="translate(0,-0.324925)">
								<path class="st6" d="M137.7,507.6l3.9,22.4l40.8-30.2L137.7,507.6z"/>
								<path class="st6" d="M150.9,532.4l-16.3-15.8l47.9-16.9L150.9,532.4z"/>
							</g>
						</g>
						<g transform="rotate(-72,0,0)">
							<g id="Arm_00000077300923421763032570000007331591973578716574_" transform="translate(0,-0.324925)">
								<path class="st6" d="M133.8,535.4l10-20.4L93,515.5L133.8,535.4z"/>
								<path class="st6" d="M137.7,507.6l3.9,22.4L93,515.5L137.7,507.6z"/>
							</g>
						</g>
						<g transform="rotate(-72,0,0) scale(-1,1)">
							<g id="Arm_00000172414685967709459830000007946518632399605645_" transform="translate(0,-0.324925)">
								<path class="st6" d="M133.8,535.4l10-20.4l30.9,40.3L133.8,535.4z"/>
								<path class="st6" d="M153.3,515.2l-20,10.7l41.4,29.4L153.3,515.2z"/>
							</g>
						</g>
					</g>
				</g>
				<g transform="translate(900,380) rotate(-82) scale(30)">
					<g id="Pentagram_00000049192478782083553430000006164387006687738519_">
						<g id="Arm_00000124845317801817697640000002139500517647797135_" transform="translate(0,-0.324925)">
							<path class="st7" d="M130.6,520.8l14.9,2.1l-10.7-31.8L130.6,520.8z"/>
							<path class="st7" d="M148.9,517.5l-13.2,7l-0.8-33.5L148.9,517.5z"/>
						</g>
						<g transform="scale(-1,1)">
							<g id="Arm_00000175292300421186314680000014980606932735711904_" transform="translate(0,-0.324925)">
								<path class="st7" d="M130.6,520.8l14.9,2.1l-19,27.6L130.6,520.8z"/>
								<path class="st7" d="M147.3,528.9l-10.8-10.4l-10,32L147.3,528.9z"/>
							</g>
						</g>
						<g transform="rotate(72,0,0)">
							<g id="Arm_00000147204205582953217750000007342678570078651777_" transform="translate(0,-0.324925)">
								<path class="st7" d="M138.6,512.5l2.6,14.8l26.9-20L138.6,512.5z"/>
								<path class="st7" d="M147.3,528.9l-10.8-10.4l31.6-11.2L147.3,528.9z"/>
							</g>
						</g>
						<g transform="rotate(-72,0,0)">
							<g id="Arm_00000005980508958789982020000008823061102034997944_" transform="translate(0,-0.324925)">
								<path class="st7" d="M136,530.9l6.6-13.5l-33.5,0.3L136,530.9z"/>
								<path class="st7" d="M138.6,512.5l2.6,14.8l-32.1-9.6L138.6,512.5z"/>
							</g>
						</g>
						<g transform="rotate(-72,0,0) scale(-1,1)">
							<g id="Arm_00000146487404043683919830000014247695264634939808_" transform="translate(0,-0.324925)">
								<path class="st7" d="M136,530.9l6.6-13.5l20.4,26.6L136,530.9z"/>
								<path class="st7" d="M148.9,517.5l-13.2,7l27.3,19.4L148.9,517.5z"/>
							</g>
						</g>
					</g>
				</g>
			</g>
		</g>
		<g id="Alpha_Crucis">
			<g transform="translate(900,480) scale(50.4)">
				<g id="Pentagram_00000093161534457741361740000006953504781283953038_">
					<g id="Arm_00000155127375964972042460000002218169042049970835_" transform="translate(0,-0.324925)">
						<path class="st6" d="M653.9-268.7v25.2l50.4-25.2H653.9z"/>
						<path class="st6" d="M663.5-239l-14.8-20.4l55.6-9.2L663.5-239z"/>
					</g>
					<g transform="scale(-1,1)">
						<g id="Arm_00000166660607442079081720000016345094237641404566_" transform="translate(0,-0.324925)">
							<path class="st6" d="M653.9-268.7v25.2l-50.4-25.2H653.9z"/>
							<path class="st6" d="M644.2-239l14.8-20.4l-55.6-9.2L644.2-239z"/>
						</g>
					</g>
					<g transform="rotate(72,0,0)">
						<g id="Arm_00000150784673926296283960000011627602821643694754_" transform="translate(0,-0.324925)">
							<path class="st6" d="M669.4-257.4l-24,7.8l39.5,40.1L669.4-257.4z"/>
							<path class="st6" d="M644.2-239l14.8-20.4l26,50L644.2-239z"/>
						</g>
					</g>
					<g transform="rotate(-72,0,0)">
						<g id="Arm_00000091717574528985961050000012812094324271098301_" transform="translate(0,-0.324925)">
							<path class="st6" d="M638.3-257.4l24,7.8l-8.4-55.7L638.3-257.4z"/>
							<path class="st6" d="M669.4-257.4l-24,7.8l8.4-55.7L669.4-257.4z"/>
						</g>
					</g>
					<g transform="rotate(-72,0,0) scale(-1,1)">
						<g id="Arm_00000109713961303993232590000014653265015461965952_" transform="translate(0,-0.324925)">
							<path class="st6" d="M638.3-257.4l24,7.8l-39.5,40.1L638.3-257.4z"/>
							<path class="st6" d="M663.5-239l-14.8-20.4l-26,50L663.5-239z"/>
						</g>
					</g>
				</g>
			</g>
			<g transform="translate(900,480) scale(35)">
				<g id="Pentagram_00000170958591269669927390000016150206485109940644_">
					<g id="Arm_00000011713747103865720930000000367114668161605516_" transform="translate(0,-0.324925)">
						<path class="st7" d="M653.9-263.7v17.5l35-17.5H653.9z"/>
						<path class="st7" d="M660.5-243.1l-10.3-14.2l38.6-6.4L660.5-243.1z"/>
					</g>
					<g transform="scale(-1,1)">
						<g id="Arm_00000020385807044357942350000016102956057153870989_" transform="translate(0,-0.324925)">
							<path class="st7" d="M653.9-263.7v17.5l-35-17.5H653.9z"/>
							<path class="st7" d="M647.2-243.1l10.3-14.2l-38.6-6.4L647.2-243.1z"/>
						</g>
					</g>
					<g transform="rotate(72,0,0)">
						<g id="Arm_00000122689603095808609190000002345785268725047970_" transform="translate(0,-0.324925)">
							<path class="st7" d="M664.7-255.8l-16.6,5.4l27.5,27.9L664.7-255.8z"/>
							<path class="st7" d="M647.2-243.1l10.3-14.2l18,34.7L647.2-243.1z"/>
						</g>
					</g>
					<g transform="rotate(-72,0,0)">
						<g id="Arm_00000100359154348024989050000012070263597976837782_" transform="translate(0,-0.324925)">
							<path class="st7" d="M643-255.8l16.6,5.4l-5.8-38.7L643-255.8z"/>
							<path class="st7" d="M664.7-255.8l-16.6,5.4l5.8-38.7L664.7-255.8z"/>
						</g>
					</g>
					<g transform="rotate(-72,0,0) scale(-1,1)">
						<g id="Arm_00000058549750325245468830000016482556022667370883_" transform="translate(0,-0.324925)">
							<path class="st7" d="M643-255.8l16.6,5.4l-27.5,27.9L643-255.8z"/>
							<path class="st7" d="M660.5-243.1l-10.3-14.2l-18,34.7L660.5-243.1z"/>
						</g>
					</g>
				</g>
			</g>
		</g>
	</g>
</g>
<g id="Layer_2">
	<rect x="-72.6" y="600" class="st8" width="1320" height="422.6"/>
	<rect x="1200" y="-44.6" class="st8" width="378.4" height="786.1"/>
</g>
</svg>
